<?xml version="1.0" ?><svg height="64" id="svg8" version="1.1" viewBox="0 0 16.933333 16.933334" width="64" xmlns="http://www.w3.org/2000/svg" xmlns:cc="http://creativecommons.org/ns#" xmlns:dc="http://purl.org/dc/elements/1.1/" xmlns:inkscape="http://www.inkscape.org/namespaces/inkscape" xmlns:rdf="http://www.w3.org/1999/02/22-rdf-syntax-ns#" xmlns:sodipodi="http://sodipodi.sourceforge.net/DTD/sodipodi-0.dtd" xmlns:svg="http://www.w3.org/2000/svg"><defs id="defs2"/><g id="layer1"><path d="m 5.5525509,0.52920009 c -0.1461198,0.0017 -0.26318,0.121557 -0.26148,0.26767502 V 1.3260242 c 0.008,0.345026 0.5215101,0.345026 0.52916,0 V 0.79687511 c 0.002,-0.14854602 -0.1191299,-0.26941102 -0.26768,-0.26767502 z m -1.62106,1.13115911 0.3787801,0.380843 c 0.2501099,0.250105 0.62528,-0.125053 0.3751699,-0.375158 L 4.304591,1.2872682 c -0.0498,-0.0512 -0.1182201,-0.08009 -0.1896499,-0.080098 -0.2357202,0.0019 -0.3514601,0.287852 -0.1834502,0.453189 z m 2.8767802,-0.373087 -0.38085,0.378777 c -0.2501101,0.250105 0.12505,0.625263 0.3751599,0.375158 l 0.3787902,-0.380843 c 0.1680099,-0.165337 0.0523,-0.451272 -0.1834502,-0.4531895 -0.0714,1.5e-6 -0.13984,0.028888 -0.1896499,0.080098 z m -5.4858802,1.358524 c -0.44341994,0 -0.79321994,0.358576 -0.79321994,0.7937231 v 3.705075 c 0,0.441348 0.3580699,0.7926901 0.79321994,0.7926901 h 0.82888 c -0.0261,0.09239 -0.034,0.166061 -0.0341,0.2635409 0,0.581348 0.47024,1.0593311 1.05883,1.0593311 0.5886001,0 1.0562501,-0.4779831 1.0562501,-1.0593311 -2.001e-4,-0.09743 -0.009,-0.1712169 -0.0351,-0.2635409 h 0.83043 c 0.2054598,0 0.3887099,-0.07527 0.5286398,-0.201531 0.1405502,0.126415 0.3247102,0.201531 0.5296702,0.201531 h 3.7030697 c 0.4351603,0 0.7947703,-0.348773 0.7947703,-0.7926901 v -0.829378 c 0.0924,0.026091 0.16607,0.03397 0.26355,0.0341 0.58135,0 1.05883,-0.4681781 1.05883,-1.0582981 0,-0.588585 -0.47748,-1.0588139 -1.05883,-1.0588139 -0.0974,1.969e-4 -0.17122,0.0095 -0.26355,0.03565 V 3.4395092 c 0,-0.435147 -0.35084,-0.793207 -0.7947703,-0.793207 H 8.527051 c -0.22913,-3.44e-4 -0.34998,0.270823 -0.1968899,0.441302 0.0872,0.09692 0.13615,0.2215371 0.13643,0.351905 0,0.2953761 -0.23816,0.529149 -0.5291601,0.529149 -0.2909998,0 -0.52916,-0.2337729 -0.52916,-0.529149 1.701e-4,-0.1302819 0.0478,-0.2549141 0.13487,-0.351905 0.15249,-0.169791 0.0329,-0.439954 -0.19533,-0.441302 H 6.0858911 c -0.2062001,0 -0.38974,0.07598 -0.5296702,0.201532 -0.14093,-0.126391 -0.3253898,-0.201496 -0.5286398,-0.201532 z m 5.5918101,0.530149 c -0.026001,0.09232 -0.0355,0.1661408 -0.0356,0.2635419 0,0.5813459 0.4672399,1.0582979 1.05883,1.0582979 0.5915901,0 1.05883,-0.476952 1.05883,-1.0582979 -2e-4,-0.09742 -0.010001,-0.1712172 -0.0357,-0.2635411 h 0.8283597 c 0.14238,0 0.2656103,0.112392 0.2656103,0.2635411 v 1.2613791 c -3.44e-4,0.2291278 0.27082,0.3504869 0.44131,0.1973979 0.0969,-0.08719 0.22105,-0.1366739 0.35139,-0.136938 0.29537,0 0.52968,0.244524 0.52968,0.5296649 0,0.290988 -0.23431,0.5291492 -0.52968,0.5291492 -0.13033,-1.76e-4 -0.25443,-0.04782 -0.35139,-0.134869 -0.17049,-0.1530898 -0.44165,-0.03173 -0.44131,0.1973971 v 1.2618961 c 0,0.14238 -0.1144603,0.2635409 -0.2656203,0.2635409 H 6.0858411 c -0.1511501,0 -0.2656102,-0.1211609 -0.2656102,-0.2635409 V 6.2164873 5.8806014 C 5.8192255,5.6523972 5.5487211,5.5327923 5.378921,5.6852712 c -0.0969,0.08718 -0.22103,0.1346001 -0.3513899,0.1348711 -0.2953801,0 -0.52968,-0.2379081 -0.52968,-0.529149 0,-0.2912401 0.2342999,-0.5296659 0.52968,-0.5296651 0.1303199,1.762e-4 0.2544198,0.04988 0.3513899,0.136938 0.17048,0.15309 0.4416499,0.03173 0.4413099,-0.197398 V 4.3649834 3.4394891 c 0,-0.1423799 0.1144601,-0.2635408 0.2656102,-0.2635424 z m 5.95199,2.5268922 -1.07226,0.939963 c -0.26,0.2278981 -0.28975,0.615728 -0.0915,0.8862208 l -0.2222,0.240289 C 10.762161,8.3727142 9.3571712,8.4435064 8.4014012,10.525122 L 8.263421,10.838271 c -0.0709,0.03077 -0.2931099,0.128062 -0.6268199,0.256822 -0.1913501,0.07383 -0.3951401,0.148094 -0.5684301,0.201532 -0.1732999,0.05344 -0.31551,0.08217 -0.36122,0.08216 h -0.1359 C 6.462421,11.072747 6.1694809,10.849123 5.8222711,10.849123 H 4.4957609 c -0.43409,0 -0.7916699,0.35182 -0.7916699,0.793207 v 3.441017 c 0,0.441316 0.3575799,0.79114 0.7916699,0.79114 h 1.3265102 c 0.3466,0 0.63792,-0.221867 0.74671,-0.527082 h 0.1064498 l 0.7591201,0.18758 c 0.0841,0.343746 0.38769,0.602008 0.76738,0.60201 0.14297,0 0.2733702,-0.03946 0.3875601,-0.10335 0.1385999,0.221523 0.3828201,0.370507 0.67075,0.370507 0.2067396,0 0.3894696,-0.07854 0.5286396,-0.203598 0.13918,0.125061 0.3219103,0.203598 0.5286503,0.203598 0.28811,0 0.53263,-0.149346 0.67126,-0.371024 0.11451,0.06438 0.24556,0.103866 0.38912,0.103867 0.35145,0 0.63904,-0.221602 0.74671,-0.527083 h 0.30954 c 0.43513,1e-6 0.79477,-0.346905 0.79477,-0.793723 0,-0.14309 -0.0376,-0.273735 -0.1018,-0.388076 0.22135,-0.138695 0.36638,-0.382826 0.36638,-0.670221 0,-0.206818 -0.0776,-0.388841 -0.20309,-0.528115 0.12545,-0.139275 0.20309,-0.323365 0.20309,-0.530183 0,-0.143512 -0.0368,-0.274541 -0.10129,-0.38911 0.22048,-0.138872 0.36586,-0.382472 0.36586,-0.669188 0,-0.05585 -0.005,-0.110039 -0.016,-0.162258 l 0.63665,-0.969418 c 0.23422,0.119554 0.5257,0.09417 0.73276,-0.08733 l 1.07175,-0.9394458 c 0.27188,-0.238311 0.29556,-0.6585288 0.0558,-0.931695 l -2.44167,-2.7816479 c -0.12251,-0.1395799 -0.28751,-0.215844 -0.45577,-0.2273705 -0.16826,-0.011522 -0.33947,0.041548 -0.47541,0.1607066 z m -0.81493,2.2276959 1.93732,2.2070257 -0.56275,0.858833 c -0.13035,-0.09268 -0.28871,-0.147789 -0.46043,-0.147789 -0.51684,-0.0011 -1.0175,2.8e-5 -1.51564,5.29e-4 0.11911,-0.148534 0.20375,-0.327511 0.20256,-0.533282 0.002,-0.150028 -0.12182,-0.271068 -0.27181,-0.267159 -0.14541,0.0037 -0.26061,0.123796 -0.25786,0.269225 3.97e-4,0.07051 -0.0503,0.178418 -0.16795,0.287312 -0.10835,0.100273 -0.25431,0.18722 -0.40668,0.243904 -0.0774,3.1e-5 -0.15699,0 -0.23564,0 -0.25838,0 -0.4312503,0.07162 -0.5586203,0.185512 -0.12737,0.113892 -0.18218,0.233058 -0.2346,0.310567 C 9.303261,11.664423 8.909901,12.216447 8.909901,12.216447 8.7859011,12.417585 8.6258311,12.481121 8.4784111,12.419528 8.327411,12.353778 8.2510512,12.178547 8.320281,12.021116 L 8.8845812,10.740101 C 9.7608507,8.8364854 11.016811,8.8586353 11.830091,8.1677344 c 0.009,-0.0072 0.0174,-0.01496 0.0253,-0.023249 z m 1.17768,3.7107587 c 0,0.143793 -0.11238,0.264575 -0.26354,0.264575 -0.44317,-5.82e-4 -0.88169,4.76e-4 -1.32393,0 -0.36069,-0.008 -0.36069,0.537155 0,0.52915 0.26458,-4.5e-4 0.26545,10e-4 1.05935,10e-4 0.15116,-6e-6 0.26355,0.119752 0.26355,0.263544 0,0.143792 -0.11239,0.263541 -0.26355,0.263541 -0.3547,5.4e-5 -0.70475,0.0014 -1.05935,0.001 -0.36069,-0.008 -0.36069,0.537154 0,0.529149 0.26458,-4.5e-4 0.26442,0 1.05832,0 0.15116,0 0.26458,0.126983 0.26458,0.264575 0,0.143792 -0.11239,0.264574 -0.26355,0.264574 -0.43949,0.0012 -0.90343,0.0014 -1.32651,5.29e-4 -0.14457,0.0015 -0.27376,0.03764 -0.38653,0.101283 -0.13894,-0.220918 -0.38318,-0.366386 -0.67024,-0.366386 -0.20651,0 -0.3893703,0.07532 -0.5286403,0.200497 -0.13926,-0.125169 -0.32213,-0.200497 -0.5286395,-0.200497 -0.1435301,0 -0.2750101,0.03674 -0.3896302,0.101282 -0.1390999,-0.219772 -0.38257,-0.363789 -0.6686799,-0.36379 -0.4468302,0 -0.7927102,0.357571 -0.7927102,0.79269 v 0.695608 l -0.66919,-0.165865 h -0.12558 l 5.292e-4,-2.909802 h 0.092 c 0.14081,0 0.32491,-0.0461 0.51727,-0.105417 0.19236,-0.05932 0.4037301,-0.136391 0.6020199,-0.212899 0.0491,-0.01897 0.0816,-0.03355 0.1286701,-0.05219 l -0.11937,0.270775 c -0.1841799,0.418777 0.007,0.910624 0.4320101,1.095503 0.4407699,0.191919 0.86814,-0.04268 1.0836299,-0.396345 0.012999,-0.01831 0.3852806,-0.539216 0.6056396,-0.865034 0.0758,-0.112078 0.1187313,-0.1846 0.1503813,-0.2129 0.0232,-0.02077 0.0578,-0.05064 0.20515,-0.05064 0.919409,-0.0012 2.006189,-0.0011 2.653009,-10e-4 0.151151,-2.5e-5 0.263541,0.119724 0.263531,0.263515 z m -5.0269899,2.38114 c 0.1437899,0 0.2635398,0.114452 0.2635398,0.265608 v 1.056231 c 0,0.151171 -0.1269097,0.265607 -0.2635398,0.265607 -0.1366401,0 -0.2635501,-0.11443 -0.2635501,-0.265607 V 14.28804 c 0,-0.151162 0.1197501,-0.265608 0.2635501,-0.265608 z m 1.0583101,0.264574 c 0.1437995,0 0.2635495,0.112386 0.2635495,0.263542 v 1.060881 c 0,0.15117 -0.12691,0.265608 -0.2635495,0.265608 -0.1366301,0 -0.2635401,-0.114431 -0.2635401,-0.265608 v -1.060881 c 0,-0.151162 0.1197499,-0.263542 0.2635401,-0.263542 z m 1.0572798,0 c 0.1438,0 0.26562,0.112386 0.26562,0.263542 v 1.060881 c 0,0.15117 -0.12898,0.265608 -0.26562,0.265608 -0.13663,0 -0.26354,-0.114431 -0.26354,-0.265608 v -1.060881 c 0,-0.151162 0.11975,-0.263542 0.26354,-0.263542 z m 1.06245,0.264575 c 0.14743,0.0059 0.26148,0.116219 0.26148,0.263541 v 0.529149 c 0,0.151171 -0.12691,0.265607 -0.26354,0.265607 -0.13664,0 -0.26562,-0.11443 -0.26562,-0.265607 v -0.529149 c 0,-0.148655 0.11855,-0.260086 0.26768,-0.263541 z m 0.74517,0 c 0.12312,1.7e-4 0.0759,10e-4 0.30902,10e-4 0.15116,5e-6 0.26561,0.11975 0.26561,0.263542 0,0.143792 -0.10722,0.264574 -0.26561,0.264574 h -0.26355 V 14.81509 c 0,-0.09256 -0.0165,-0.180682 -0.0455,-0.263541 z" id="path2422" style="color:#000000;font-style:normal;font-variant:normal;font-weight:normal;font-stretch:normal;font-size:medium;line-height:normal;font-family:sans-serif;font-variant-ligatures:normal;font-variant-position:normal;font-variant-caps:normal;font-variant-numeric:normal;font-variant-alternates:normal;font-feature-settings:normal;text-indent:0;text-align:start;text-decoration:none;text-decoration-line:none;text-decoration-style:solid;text-decoration-color:#000000;letter-spacing:normal;word-spacing:normal;text-transform:none;writing-mode:lr-tb;direction:ltr;text-orientation:mixed;dominant-baseline:auto;baseline-shift:baseline;text-anchor:start;white-space:normal;shape-padding:0;clip-rule:nonzero;display:inline;overflow:visible;visibility:visible;opacity:1;isolation:auto;mix-blend-mode:normal;color-interpolation:sRGB;color-interpolation-filters:linearRGB;solid-color:#000000;solid-opacity:1;vector-effect:none;fill:#000000;fill-opacity:1;fill-rule:nonzero;stroke:none;stroke-width:0.52916604;stroke-linecap:round;stroke-linejoin:round;stroke-miterlimit:4;stroke-dasharray:none;stroke-dashoffset:0;stroke-opacity:1;paint-order:stroke fill markers;color-rendering:auto;image-rendering:auto;shape-rendering:auto;text-rendering:auto;enable-background:accumulate"/></g></svg>