<?xml version="1.0" encoding="UTF-8" standalone="no"?>
<svg width="32px" height="32px" viewBox="0 0 32 32" version="1.1" xmlns="http://www.w3.org/2000/svg" xmlns:xlink="http://www.w3.org/1999/xlink">
    <!-- Generator: Sketch 44.1 (41455) - http://www.bohemiancoding.com/sketch -->
    <title>Cross 2</title>
    <desc>Created with Sketch.</desc>
    <defs></defs>
    <g id="Page-2-Copy" stroke="none" stroke-width="1" fill="none" fill-rule="evenodd">
        <g id="104" stroke="#979797">
            <path d="M15.9511967,17.3654103 L11.7414647,21.5751422 C11.3574626,21.9591444 10.7235367,21.9599054 10.3330124,21.5693811 C9.93976541,21.1761341 9.94168101,20.5464989 10.3312097,20.1569701 L14.5369832,15.9511967 L10.2925398,11.7067534 C9.90056257,11.3147761 9.90381817,10.6848668 10.2943425,10.2943425 C10.6875894,9.90109551 11.3177847,9.90357115 11.7080043,10.2937907 L12.7385738,11.3243602 L15.9511967,14.5369832 L20.19564,10.2925398 C20.5876173,9.90056257 21.2175267,9.90381817 21.608051,10.2943425 C22.0012979,10.6875894 21.9988223,11.3177847 21.6086027,11.7080043 L20.5780332,12.7385738 L17.3654103,15.9511967 L21.5751422,20.1609287 C21.9591444,20.5449308 21.9599054,21.1788568 21.5693811,21.5693811 C21.1761341,21.962628 20.5464989,21.9607124 20.1569701,21.5711837 L15.9511967,17.3654103 L15.9511967,17.3654103 L15.9511967,17.3654103 Z" id="Rectangle-348" stroke="none" fill="#2A2630" fill-rule="evenodd"></path>
            <path d="M0,2.00174332 C0,0.889261723 0.89621101,0 2.00174332,0 L29.9982567,0 C31.1107383,0 32,0.89621101 32,2.00174332 L32,29.9982567 C32,31.1107383 31.103789,32 29.9982567,32 L2.00174332,32 C0.889261723,32 0,31.103789 0,29.9982567 L0,2.00174332 Z M29.9982567,2 C29.9982567,2 2,1.99730764 2,2.00174332 C2,2.00174332 1.99730764,30 2.00174332,30 C2.00174332,30 30,30.0026924 30,29.9982567 C30,29.9982567 30.0026924,2 29.9982567,2 Z" id="Rectangle-577" stroke="none" fill="#95909E" fill-rule="nonzero"></path>
        </g>
    </g>
</svg>